# xmcd
#
# Track frame offsets: 
#        150
#        22415
#        42575
#        66306
#        84967
#        104917
#        117354
#        133308
#        152659
#        168386
#        183292
#        195900
#        209031
#        225786
#        235592
#        252947
#        269178
#
# Disc length: 3889 seconds
#
# Revision: 0
# Processed by: cddbd v1.5.2PL0 Copyright (c) Steve Scherf et al.
# Submitted via: ExactAudioCopy v1.0b3
#
DISCID=f90f2f11
DTITLE=Various Artist - The Greatest 50 Black and Soul Hits [CD1)
DYEAR=1900
DGENRE=Blues
TTITLE0=Rose Royce - Car Wash 
TTITLE1=The Temptations - Masterpiece
TTITLE2=Heatwave - Boogie Nights 
TTITLE3=Gladys Knight and The Pips - Midnight Train To Georgia 
TTITLE4=Barry White - Under The Influence Of Love
TTITLE5=James Brown - Stagger Lee
TTITLE6=The Chi-Lites - Homely Girl
TTITLE7=The Commodores - Living On The Edge
TTITLE8=The Trammps - Hold Back The Night
TTITLE9=Gibson Brothers - Mariana
TTITLE10=The Four Tops - It's The Same Old Song
TTITLE11=Sam and Dave - Soul Man
TTITLE12=Lou Rawls - Lady Love
TTITLE13=The Tams - Hey Girl Don't Bother Me
TTITLE14=Marvin Gaye - I Heard It Through The Grapevine
TTITLE15=Ike and Tina Turner - River Deep, Mountain High
TTITLE16=Thelma Houston - Don't Leave Me This Way
EXTD=
EXTT0=
EXTT1=
EXTT2=
EXTT3=
EXTT4=
EXTT5=
EXTT6=
EXTT7=
EXTT8=
EXTT9=
EXTT10=
EXTT11=
EXTT12=
EXTT13=
EXTT14=
EXTT15=
EXTT16=
PLAYORDER=
